<svg width="48" height="48" viewBox="0 0 48 48" fill="none" xmlns="http://www.w3.org/2000/svg">
<path d="M42.8325 16.7512L24.8325 4.75125C24.586 4.58679 24.2963 4.49902 24 4.49902C23.7037 4.49902 23.414 4.58679 23.1675 4.75125L5.1675 16.7512C4.96202 16.8883 4.79358 17.0741 4.67713 17.2919C4.56068 17.5098 4.49984 17.753 4.5 18V37.5C4.5 38.2956 4.81607 39.0587 5.37868 39.6213C5.94129 40.1839 6.70435 40.5 7.5 40.5H40.5C41.2957 40.5 42.0587 40.1839 42.6213 39.6213C43.1839 39.0587 43.5 38.2956 43.5 37.5V18C43.5002 17.753 43.4393 17.5098 43.3229 17.2919C43.2064 17.0741 43.038 16.8883 42.8325 16.7512ZM7.5 37.5V20.9119L19.8563 29.7244C20.1107 29.9061 20.4155 30.0038 20.7281 30.0037H27.2719C27.5845 30.0038 27.8893 29.9061 28.1438 29.7244L40.5 20.9119V37.5H7.5Z" fill="white"/>
</svg>
